<svg xmlns="http://www.w3.org/2000/svg" xmlns:xlink="http://www.w3.org/1999/xlink" viewBox="0 0 900 90" width="900" height="90">

  <defs>
    <radialGradient id="morpho" cx="0.1" cy="0.5" r="1">
      <stop offset="0" stop-color="#8fd3ff"/>
      <stop offset="0.35" stop-color="#1e90ff"/>
      <stop offset="0.7" stop-color="#0a4fc4"/>
      <stop offset="1" stop-color="#061a3d"/>
    </radialGradient>
    <radialGradient id="morpho2" cx="0.1" cy="0.3" r="1">
      <stop offset="0" stop-color="#b7e3ff"/>
      <stop offset="0.4" stop-color="#3aa0ff"/>
      <stop offset="0.75" stop-color="#1557c9"/>
      <stop offset="1" stop-color="#071d45"/>
    </radialGradient>
    <radialGradient id="pink" cx="0.1" cy="0.5" r="1">
      <stop offset="0" stop-color="#ffd1ec"/>
      <stop offset="0.35" stop-color="#ff6fb5"/>
      <stop offset="0.7" stop-color="#d6337f"/>
      <stop offset="1" stop-color="#4a0b2c"/>
    </radialGradient>
    <radialGradient id="pink2" cx="0.1" cy="0.3" r="1">
      <stop offset="0" stop-color="#ffe3f3"/>
      <stop offset="0.4" stop-color="#ff9ccf"/>
      <stop offset="0.75" stop-color="#e0559b"/>
      <stop offset="1" stop-color="#521033"/>
    </radialGradient>
    <linearGradient id="txt" x1="0" y1="0" x2="1" y2="0">
      <stop offset="0" stop-color="#1f6feb"/><stop offset="0.5" stop-color="#58a6ff"/><stop offset="1" stop-color="#1f6feb"/>
    </linearGradient>
    <g id="w_morpho">
      <clipPath id="cfmorpho"><path d="M1,-3 C6,-14 18,-27 34,-31 C41,-32 45,-28 43,-22 C41,-12 35,-4 25,0 C17,3 8,2 1,0 Z"/></clipPath>
      <clipPath id="chmorpho"><path d="M1,1 C8,2 20,3 28,8 C32,10 33,14 31,18 C30,21 29,22 27,24 C25,26 23,25 21,27 C19,30 16,31 13,30 C9,30 7,28 5,24 C3,19 1,10 1,1 Z"/></clipPath>
      <path d="M1,1 C8,2 20,3 28,8 C32,10 33,14 31,18 C30,21 29,22 27,24 C25,26 23,25 21,27 C19,30 16,31 13,30 C9,30 7,28 5,24 C3,19 1,10 1,1 Z" fill="url(#morpho)"/>
      <path d="M1,1 C8,2 20,3 28,8 C32,10 33,14 31,18 C30,21 29,22 27,24 C25,26 23,25 21,27 C19,30 16,31 13,30 C9,30 7,28 5,24 C3,19 1,10 1,1 Z" fill="none" stroke="#0b0f1a" stroke-width="3.5" clip-path="url(#chmorpho)" opacity="0.9"/>
      <path d="M1,-3 C6,-14 18,-27 34,-31 C41,-32 45,-28 43,-22 C41,-12 35,-4 25,0 C17,3 8,2 1,0 Z" fill="url(#morpho)"/>
      <ellipse cx="16" cy="-12" rx="14" ry="6" transform="rotate(-35 16 -12)" fill="#e6f5ff" opacity="0.18" clip-path="url(#cfmorpho)"/>
      <path d="M1,-3 C6,-14 18,-27 34,-31 C41,-32 45,-28 43,-22 C41,-12 35,-4 25,0 C17,3 8,2 1,0 Z" fill="none" stroke="#0b0f1a" stroke-width="4.5" clip-path="url(#cfmorpho)" opacity="0.92"/>
      <g stroke="#04122b" stroke-width="0.45" opacity="0.4" fill="none">
        <path d="M2,-2 C12,-12 22,-20 31,-26"/><path d="M2,-1 C14,-8 26,-13 38,-17"/>
        <path d="M2,0 C12,-2 20,-3 30,-6"/><path d="M2,2 C10,8 18,14 24,21"/><path d="M2,2 C6,12 9,20 12,28"/>
      </g>
      <g fill="#ffffff" opacity="0.85">
        <circle cx="39" cy="-24" r="0.9"/><circle cx="35.5" cy="-27.5" r="0.75"/><circle cx="40.5" cy="-19.5" r="0.75"/><circle cx="37" cy="-14" r="0.6"/>
        <circle cx="27.5" cy="21" r="0.6"/><circle cx="22" cy="25.5" r="0.55"/>
      </g>
      <path d="M1,1 C8,2 20,3 28,8 C32,10 33,14 31,18 C30,21 29,22 27,24 C25,26 23,25 21,27 C19,30 16,31 13,30 C9,30 7,28 5,24 C3,19 1,10 1,1 Z" fill="none" stroke="#0b0f1a" stroke-width="0.6"/>
      <path d="M1,-3 C6,-14 18,-27 34,-31 C41,-32 45,-28 43,-22 C41,-12 35,-4 25,0 C17,3 8,2 1,0 Z" fill="none" stroke="#0b0f1a" stroke-width="0.6"/>
    </g>
  <g id="w_morpho2">
      <clipPath id="cfmorpho2"><path d="M1,-3 C6,-14 18,-27 34,-31 C41,-32 45,-28 43,-22 C41,-12 35,-4 25,0 C17,3 8,2 1,0 Z"/></clipPath>
      <clipPath id="chmorpho2"><path d="M1,1 C8,2 20,3 28,8 C32,10 33,14 31,18 C30,21 29,22 27,24 C25,26 23,25 21,27 C19,30 16,31 13,30 C9,30 7,28 5,24 C3,19 1,10 1,1 Z"/></clipPath>
      <path d="M1,1 C8,2 20,3 28,8 C32,10 33,14 31,18 C30,21 29,22 27,24 C25,26 23,25 21,27 C19,30 16,31 13,30 C9,30 7,28 5,24 C3,19 1,10 1,1 Z" fill="url(#morpho2)"/>
      <path d="M1,1 C8,2 20,3 28,8 C32,10 33,14 31,18 C30,21 29,22 27,24 C25,26 23,25 21,27 C19,30 16,31 13,30 C9,30 7,28 5,24 C3,19 1,10 1,1 Z" fill="none" stroke="#0b0f1a" stroke-width="3.5" clip-path="url(#chmorpho2)" opacity="0.9"/>
      <path d="M1,-3 C6,-14 18,-27 34,-31 C41,-32 45,-28 43,-22 C41,-12 35,-4 25,0 C17,3 8,2 1,0 Z" fill="url(#morpho2)"/>
      <ellipse cx="16" cy="-12" rx="14" ry="6" transform="rotate(-35 16 -12)" fill="#e6f5ff" opacity="0.18" clip-path="url(#cfmorpho2)"/>
      <path d="M1,-3 C6,-14 18,-27 34,-31 C41,-32 45,-28 43,-22 C41,-12 35,-4 25,0 C17,3 8,2 1,0 Z" fill="none" stroke="#0b0f1a" stroke-width="4.5" clip-path="url(#cfmorpho2)" opacity="0.92"/>
      <g stroke="#04122b" stroke-width="0.45" opacity="0.4" fill="none">
        <path d="M2,-2 C12,-12 22,-20 31,-26"/><path d="M2,-1 C14,-8 26,-13 38,-17"/>
        <path d="M2,0 C12,-2 20,-3 30,-6"/><path d="M2,2 C10,8 18,14 24,21"/><path d="M2,2 C6,12 9,20 12,28"/>
      </g>
      <g fill="#ffffff" opacity="0.85">
        <circle cx="39" cy="-24" r="0.9"/><circle cx="35.5" cy="-27.5" r="0.75"/><circle cx="40.5" cy="-19.5" r="0.75"/><circle cx="37" cy="-14" r="0.6"/>
        <circle cx="27.5" cy="21" r="0.6"/><circle cx="22" cy="25.5" r="0.55"/>
      </g>
      <path d="M1,1 C8,2 20,3 28,8 C32,10 33,14 31,18 C30,21 29,22 27,24 C25,26 23,25 21,27 C19,30 16,31 13,30 C9,30 7,28 5,24 C3,19 1,10 1,1 Z" fill="none" stroke="#0b0f1a" stroke-width="0.6"/>
      <path d="M1,-3 C6,-14 18,-27 34,-31 C41,-32 45,-28 43,-22 C41,-12 35,-4 25,0 C17,3 8,2 1,0 Z" fill="none" stroke="#0b0f1a" stroke-width="0.6"/>
    </g>
  <g id="w_pink">
      <clipPath id="cfpink"><path d="M1,-3 C6,-14 18,-27 34,-31 C41,-32 45,-28 43,-22 C41,-12 35,-4 25,0 C17,3 8,2 1,0 Z"/></clipPath>
      <clipPath id="chpink"><path d="M1,1 C8,2 20,3 28,8 C32,10 33,14 31,18 C30,21 29,22 27,24 C25,26 23,25 21,27 C19,30 16,31 13,30 C9,30 7,28 5,24 C3,19 1,10 1,1 Z"/></clipPath>
      <path d="M1,1 C8,2 20,3 28,8 C32,10 33,14 31,18 C30,21 29,22 27,24 C25,26 23,25 21,27 C19,30 16,31 13,30 C9,30 7,28 5,24 C3,19 1,10 1,1 Z" fill="url(#pink)"/>
      <path d="M1,1 C8,2 20,3 28,8 C32,10 33,14 31,18 C30,21 29,22 27,24 C25,26 23,25 21,27 C19,30 16,31 13,30 C9,30 7,28 5,24 C3,19 1,10 1,1 Z" fill="none" stroke="#0b0f1a" stroke-width="3.5" clip-path="url(#chpink)" opacity="0.9"/>
      <path d="M1,-3 C6,-14 18,-27 34,-31 C41,-32 45,-28 43,-22 C41,-12 35,-4 25,0 C17,3 8,2 1,0 Z" fill="url(#pink)"/>
      <ellipse cx="16" cy="-12" rx="14" ry="6" transform="rotate(-35 16 -12)" fill="#e6f5ff" opacity="0.18" clip-path="url(#cfpink)"/>
      <path d="M1,-3 C6,-14 18,-27 34,-31 C41,-32 45,-28 43,-22 C41,-12 35,-4 25,0 C17,3 8,2 1,0 Z" fill="none" stroke="#0b0f1a" stroke-width="4.5" clip-path="url(#cfpink)" opacity="0.92"/>
      <g stroke="#04122b" stroke-width="0.45" opacity="0.4" fill="none">
        <path d="M2,-2 C12,-12 22,-20 31,-26"/><path d="M2,-1 C14,-8 26,-13 38,-17"/>
        <path d="M2,0 C12,-2 20,-3 30,-6"/><path d="M2,2 C10,8 18,14 24,21"/><path d="M2,2 C6,12 9,20 12,28"/>
      </g>
      <g fill="#ffffff" opacity="0.85">
        <circle cx="39" cy="-24" r="0.9"/><circle cx="35.5" cy="-27.5" r="0.75"/><circle cx="40.5" cy="-19.5" r="0.75"/><circle cx="37" cy="-14" r="0.6"/>
        <circle cx="27.5" cy="21" r="0.6"/><circle cx="22" cy="25.5" r="0.55"/>
      </g>
      <path d="M1,1 C8,2 20,3 28,8 C32,10 33,14 31,18 C30,21 29,22 27,24 C25,26 23,25 21,27 C19,30 16,31 13,30 C9,30 7,28 5,24 C3,19 1,10 1,1 Z" fill="none" stroke="#0b0f1a" stroke-width="0.6"/>
      <path d="M1,-3 C6,-14 18,-27 34,-31 C41,-32 45,-28 43,-22 C41,-12 35,-4 25,0 C17,3 8,2 1,0 Z" fill="none" stroke="#0b0f1a" stroke-width="0.6"/>
    </g>
  <g id="w_pink2">
      <clipPath id="cfpink2"><path d="M1,-3 C6,-14 18,-27 34,-31 C41,-32 45,-28 43,-22 C41,-12 35,-4 25,0 C17,3 8,2 1,0 Z"/></clipPath>
      <clipPath id="chpink2"><path d="M1,1 C8,2 20,3 28,8 C32,10 33,14 31,18 C30,21 29,22 27,24 C25,26 23,25 21,27 C19,30 16,31 13,30 C9,30 7,28 5,24 C3,19 1,10 1,1 Z"/></clipPath>
      <path d="M1,1 C8,2 20,3 28,8 C32,10 33,14 31,18 C30,21 29,22 27,24 C25,26 23,25 21,27 C19,30 16,31 13,30 C9,30 7,28 5,24 C3,19 1,10 1,1 Z" fill="url(#pink2)"/>
      <path d="M1,1 C8,2 20,3 28,8 C32,10 33,14 31,18 C30,21 29,22 27,24 C25,26 23,25 21,27 C19,30 16,31 13,30 C9,30 7,28 5,24 C3,19 1,10 1,1 Z" fill="none" stroke="#0b0f1a" stroke-width="3.5" clip-path="url(#chpink2)" opacity="0.9"/>
      <path d="M1,-3 C6,-14 18,-27 34,-31 C41,-32 45,-28 43,-22 C41,-12 35,-4 25,0 C17,3 8,2 1,0 Z" fill="url(#pink2)"/>
      <ellipse cx="16" cy="-12" rx="14" ry="6" transform="rotate(-35 16 -12)" fill="#e6f5ff" opacity="0.18" clip-path="url(#cfpink2)"/>
      <path d="M1,-3 C6,-14 18,-27 34,-31 C41,-32 45,-28 43,-22 C41,-12 35,-4 25,0 C17,3 8,2 1,0 Z" fill="none" stroke="#0b0f1a" stroke-width="4.5" clip-path="url(#cfpink2)" opacity="0.92"/>
      <g stroke="#04122b" stroke-width="0.45" opacity="0.4" fill="none">
        <path d="M2,-2 C12,-12 22,-20 31,-26"/><path d="M2,-1 C14,-8 26,-13 38,-17"/>
        <path d="M2,0 C12,-2 20,-3 30,-6"/><path d="M2,2 C10,8 18,14 24,21"/><path d="M2,2 C6,12 9,20 12,28"/>
      </g>
      <g fill="#ffffff" opacity="0.85">
        <circle cx="39" cy="-24" r="0.9"/><circle cx="35.5" cy="-27.5" r="0.75"/><circle cx="40.5" cy="-19.5" r="0.75"/><circle cx="37" cy="-14" r="0.6"/>
        <circle cx="27.5" cy="21" r="0.6"/><circle cx="22" cy="25.5" r="0.55"/>
      </g>
      <path d="M1,1 C8,2 20,3 28,8 C32,10 33,14 31,18 C30,21 29,22 27,24 C25,26 23,25 21,27 C19,30 16,31 13,30 C9,30 7,28 5,24 C3,19 1,10 1,1 Z" fill="none" stroke="#0b0f1a" stroke-width="0.6"/>
      <path d="M1,-3 C6,-14 18,-27 34,-31 C41,-32 45,-28 43,-22 C41,-12 35,-4 25,0 C17,3 8,2 1,0 Z" fill="none" stroke="#0b0f1a" stroke-width="0.6"/>
    </g>
  </defs>
  <g opacity="0.91"><g transform="rotate(90) scale(0.36)"><g><use href="#w_morpho"/><animateTransform attributeName="transform" type="scale" values="1 1;0.12 1;1 1" dur="0.45s" calcMode="spline" keyTimes="0;0.5;1" keySplines="0.4 0 0.6 1;0.4 0 0.6 1" repeatCount="indefinite"/></g><g transform="scale(-1,1)"><g><use href="#w_morpho"/><animateTransform attributeName="transform" type="scale" values="1 1;0.12 1;1 1" dur="0.45s" calcMode="spline" keyTimes="0;0.5;1" keySplines="0.4 0 0.6 1;0.4 0 0.6 1" repeatCount="indefinite"/></g></g><ellipse cx="0" cy="4" rx="2" ry="13" fill="#0b0f1a"/><circle cx="0" cy="-10" r="2.4" fill="#0b0f1a"/><path d="M-0.8,-11 C-3,-19 -6,-24 -8,-27 M0.8,-11 C3,-19 6,-24 8,-27" stroke="#0b0f1a" stroke-width="0.8" fill="none"/><circle cx="-8" cy="-27" r="1.1" fill="#0b0f1a"/><circle cx="8" cy="-27" r="1.1" fill="#0b0f1a"/></g><animateMotion path="M444,65 C517,67 579,65 612,64 C644,64 718,63 641,60 C564,57 141,51 150,46 C159,41 692,31 696,29 C699,28 213,32 171,38 C129,44 370,60 444,65" dur="25.5s" begin="-13.5s" repeatCount="indefinite" rotate="auto"/></g>
  <g opacity="0.94"><g transform="rotate(90) scale(0.45)"><g><use href="#w_morpho2"/><animateTransform attributeName="transform" type="scale" values="1 1;0.12 1;1 1" dur="0.44s" calcMode="spline" keyTimes="0;0.5;1" keySplines="0.4 0 0.6 1;0.4 0 0.6 1" repeatCount="indefinite"/></g><g transform="scale(-1,1)"><g><use href="#w_morpho2"/><animateTransform attributeName="transform" type="scale" values="1 1;0.12 1;1 1" dur="0.44s" calcMode="spline" keyTimes="0;0.5;1" keySplines="0.4 0 0.6 1;0.4 0 0.6 1" repeatCount="indefinite"/></g></g><ellipse cx="0" cy="4" rx="2" ry="13" fill="#0b0f1a"/><circle cx="0" cy="-10" r="2.4" fill="#0b0f1a"/><path d="M-0.8,-11 C-3,-19 -6,-24 -8,-27 M0.8,-11 C3,-19 6,-24 8,-27" stroke="#0b0f1a" stroke-width="0.8" fill="none"/><circle cx="-8" cy="-27" r="1.1" fill="#0b0f1a"/><circle cx="8" cy="-27" r="1.1" fill="#0b0f1a"/></g><animateMotion path="M847,46 C873,43 600,28 539,28 C478,28 485,44 480,45 C476,46 451,34 512,34 C573,35 873,42 846,46 C795,50 221,55 203,57 C186,60 727,62 742,59 C756,56 273,43 291,41 C308,39 805,48 847,46" dur="34.8s" begin="-19.6s" repeatCount="indefinite" rotate="auto"/></g>
  <g opacity="0.92"><g transform="rotate(90) scale(0.36)"><g><use href="#w_pink"/><animateTransform attributeName="transform" type="scale" values="1 1;0.12 1;1 1" dur="0.42s" calcMode="spline" keyTimes="0;0.5;1" keySplines="0.4 0 0.6 1;0.4 0 0.6 1" repeatCount="indefinite"/></g><g transform="scale(-1,1)"><g><use href="#w_pink"/><animateTransform attributeName="transform" type="scale" values="1 1;0.12 1;1 1" dur="0.42s" calcMode="spline" keyTimes="0;0.5;1" keySplines="0.4 0 0.6 1;0.4 0 0.6 1" repeatCount="indefinite"/></g></g><ellipse cx="0" cy="4" rx="2" ry="13" fill="#0b0f1a"/><circle cx="0" cy="-10" r="2.4" fill="#0b0f1a"/><path d="M-0.8,-11 C-3,-19 -6,-24 -8,-27 M0.8,-11 C3,-19 6,-24 8,-27" stroke="#0b0f1a" stroke-width="0.8" fill="none"/><circle cx="-8" cy="-27" r="1.1" fill="#0b0f1a"/><circle cx="8" cy="-27" r="1.1" fill="#0b0f1a"/></g><animateMotion path="M43,32 C23,30 49,52 134,57 C218,62 524,67 551,63 C577,59 254,35 294,32 C334,28 775,39 792,44 C808,49 454,61 393,59 C333,56 357,33 427,29 C497,25 820,29 811,35 C803,41 505,65 376,65 C248,64 83,33 43,32" dur="33.0s" begin="-10.6s" repeatCount="indefinite" rotate="auto"/></g>
  <g opacity="0.95"><g transform="rotate(90) scale(0.37)"><g><use href="#w_pink2"/><animateTransform attributeName="transform" type="scale" values="1 1;0.12 1;1 1" dur="0.33s" calcMode="spline" keyTimes="0;0.5;1" keySplines="0.4 0 0.6 1;0.4 0 0.6 1" repeatCount="indefinite"/></g><g transform="scale(-1,1)"><g><use href="#w_pink2"/><animateTransform attributeName="transform" type="scale" values="1 1;0.12 1;1 1" dur="0.33s" calcMode="spline" keyTimes="0;0.5;1" keySplines="0.4 0 0.6 1;0.4 0 0.6 1" repeatCount="indefinite"/></g></g><ellipse cx="0" cy="4" rx="2" ry="13" fill="#0b0f1a"/><circle cx="0" cy="-10" r="2.4" fill="#0b0f1a"/><path d="M-0.8,-11 C-3,-19 -6,-24 -8,-27 M0.8,-11 C3,-19 6,-24 8,-27" stroke="#0b0f1a" stroke-width="0.8" fill="none"/><circle cx="-8" cy="-27" r="1.1" fill="#0b0f1a"/><circle cx="8" cy="-27" r="1.1" fill="#0b0f1a"/></g><animateMotion path="M760,46 C727,46 582,45 549,47 C516,49 526,63 563,59 C601,55 761,25 773,25 C785,24 639,49 636,54 C632,58 729,51 750,50 C771,49 794,47 760,46" dur="25.5s" begin="-13.8s" repeatCount="indefinite" rotate="auto"/></g>
  <g opacity="0.90"><g transform="rotate(90) scale(0.49)"><g><use href="#w_morpho"/><animateTransform attributeName="transform" type="scale" values="1 1;0.12 1;1 1" dur="0.44s" calcMode="spline" keyTimes="0;0.5;1" keySplines="0.4 0 0.6 1;0.4 0 0.6 1" repeatCount="indefinite"/></g><g transform="scale(-1,1)"><g><use href="#w_morpho"/><animateTransform attributeName="transform" type="scale" values="1 1;0.12 1;1 1" dur="0.44s" calcMode="spline" keyTimes="0;0.5;1" keySplines="0.4 0 0.6 1;0.4 0 0.6 1" repeatCount="indefinite"/></g></g><ellipse cx="0" cy="4" rx="2" ry="13" fill="#0b0f1a"/><circle cx="0" cy="-10" r="2.4" fill="#0b0f1a"/><path d="M-0.8,-11 C-3,-19 -6,-24 -8,-27 M0.8,-11 C3,-19 6,-24 8,-27" stroke="#0b0f1a" stroke-width="0.8" fill="none"/><circle cx="-8" cy="-27" r="1.1" fill="#0b0f1a"/><circle cx="8" cy="-27" r="1.1" fill="#0b0f1a"/></g><animateMotion path="M694,33 C684,34 804,43 729,43 C655,42 331,31 248,32 C165,34 143,52 231,52 C319,52 779,32 776,34 C773,35 293,56 213,61 C133,61 198,61 294,58 C390,55 722,43 789,39 C855,35 704,33 694,33" dur="33.0s" begin="-0.6s" repeatCount="indefinite" rotate="auto"/></g>
  <g opacity="0.89"><g transform="rotate(90) scale(0.49)"><g><use href="#w_morpho2"/><animateTransform attributeName="transform" type="scale" values="1 1;0.12 1;1 1" dur="0.49s" calcMode="spline" keyTimes="0;0.5;1" keySplines="0.4 0 0.6 1;0.4 0 0.6 1" repeatCount="indefinite"/></g><g transform="scale(-1,1)"><g><use href="#w_morpho2"/><animateTransform attributeName="transform" type="scale" values="1 1;0.12 1;1 1" dur="0.49s" calcMode="spline" keyTimes="0;0.5;1" keySplines="0.4 0 0.6 1;0.4 0 0.6 1" repeatCount="indefinite"/></g></g><ellipse cx="0" cy="4" rx="2" ry="13" fill="#0b0f1a"/><circle cx="0" cy="-10" r="2.4" fill="#0b0f1a"/><path d="M-0.8,-11 C-3,-19 -6,-24 -8,-27 M0.8,-11 C3,-19 6,-24 8,-27" stroke="#0b0f1a" stroke-width="0.8" fill="none"/><circle cx="-8" cy="-27" r="1.1" fill="#0b0f1a"/><circle cx="8" cy="-27" r="1.1" fill="#0b0f1a"/></g><animateMotion path="M126,45 C204,43 587,47 667,45 C747,43 703,37 606,35 C510,33 180,31 89,33 C29,35 29,44 61,47 C123,49 447,49 462,47 C478,45 196,34 153,35 C109,37 205,54 201,56 C197,57 49,47 126,45" dur="36.8s" begin="-3.5s" repeatCount="indefinite" rotate="auto"/></g>
</svg>
